<svg xmlns="http://www.w3.org/2000/svg" width="3000" height="480" viewBox="0 0 3000 480">
<defs><marker id="arrow" viewBox="0 0 10 10" refX="9" refY="5" markerWidth="7" markerHeight="7" orient="auto-start-reverse"><path d="M 0 0 L 10 5 L 0 10 z" fill="#315A7D"/></marker></defs>
<rect width="100%" height="100%" fill="white"/>
<text x="28" y="32" font-family="Helvetica,Arial,sans-serif" font-size="18" font-weight="700" fill="#17324D">chromaticNumber_cartesianPower</text>
<path d="M 445 240.0 L 550 240.0" stroke="#315A7D" stroke-width="1.8" fill="none" marker-end="url(#arrow)"/>
<polygon points="430,223.0 447,240.0 430,257.0 413,240.0" fill="#FFF0DB" stroke="#D97706" stroke-width="1.8"/>
<text x="430" y="272.0" text-anchor="middle" font-family="Helvetica,Arial,sans-serif" font-size="9" fill="#7C4300">SimpleGraph.colorable_chrom</text>
<text x="430" y="284.0" text-anchor="middle" font-family="Helvetica,Arial,sans-serif" font-size="9" fill="#7C4300">aticNumber_of_fintype</text>
<rect x="369" y="172.0" width="122" height="27" rx="7" fill="#F3ECFF" stroke="#7D4CC2" stroke-width="1.2"/>
<text x="430" y="190.0" text-anchor="middle" font-family="Helvetica,Arial,sans-serif" font-size="10" fill="#60349A">retrieved loogle:0, loogle:20</text>
<path d="M 430 199.0 L 430 222.0" stroke="#7D4CC2" stroke-width="1.2" stroke-dasharray="5 4" fill="none"/>
<path d="M 340 320.0 L 900.0 240.0" stroke="#315A7D" stroke-width="1.8" fill="none" marker-end="url(#arrow)"/>
<path d="M 810 240.0 L 900.0 240.0" stroke="#315A7D" stroke-width="1.8" fill="none" marker-end="url(#arrow)"/>
<path d="M 930.0 240.0 L 1020 160.0" stroke="#315A7D" stroke-width="1.8" fill="none" marker-end="url(#arrow)"/>
<polygon points="915.0,223.0 932.0,240.0 915.0,257.0 898.0,240.0" fill="#FFF0DB" stroke="#D97706" stroke-width="1.8"/>
<text x="915.0" y="272.0" text-anchor="middle" font-family="Helvetica,Arial,sans-serif" font-size="9" fill="#7C4300">SimpleGraph.isEmpty_of_colo</text>
<text x="915.0" y="284.0" text-anchor="middle" font-family="Helvetica,Arial,sans-serif" font-size="9" fill="#7C4300">rable_zero</text>
<rect x="854.0" y="172.0" width="122" height="27" rx="7" fill="#F3ECFF" stroke="#7D4CC2" stroke-width="1.2"/>
<text x="915.0" y="190.0" text-anchor="middle" font-family="Helvetica,Arial,sans-serif" font-size="10" fill="#60349A">retrieved loogle:20</text>
<path d="M 915.0 199.0 L 915.0 222.0" stroke="#7D4CC2" stroke-width="1.2" stroke-dasharray="5 4" fill="none"/>
<path d="M 810 240.0 L 1370.0 213.33333333333334" stroke="#315A7D" stroke-width="1.8" fill="none" marker-end="url(#arrow)"/>
<path d="M 1280 160.0 L 1370.0 213.33333333333334" stroke="#315A7D" stroke-width="1.8" fill="none" marker-end="url(#arrow)"/>
<path d="M 1400.0 213.33333333333334 L 1490 240.0" stroke="#315A7D" stroke-width="1.8" fill="none" marker-end="url(#arrow)"/>
<polygon points="1385.0,196.33333333333334 1402.0,213.33333333333334 1385.0,230.33333333333334 1368.0,213.33333333333334" fill="#FFF0DB" stroke="#D97706" stroke-width="1.8"/>
<text x="1385.0" y="245.33333333333334" text-anchor="middle" font-family="Helvetica,Arial,sans-serif" font-size="9" fill="#7C4300">Rollout_p0613_chromaticnumb</text>
<text x="1385.0" y="257.33333333333337" text-anchor="middle" font-family="Helvetica,Arial,sans-serif" font-size="9" fill="#7C4300">er_cartesianpower.cartesian</text>
<text x="1385.0" y="269.33333333333337" text-anchor="middle" font-family="Helvetica,Arial,sans-serif" font-size="9" fill="#7C4300">Power_colorable_of_coloring</text>
<path d="M 810 240.0 L 900.0 280.0" stroke="#315A7D" stroke-width="1.8" fill="none" marker-end="url(#arrow)"/>
<path d="M 930.0 280.0 L 1020 320.0" stroke="#315A7D" stroke-width="1.8" fill="none" marker-end="url(#arrow)"/>
<polygon points="915.0,263.0 932.0,280.0 915.0,297.0 898.0,280.0" fill="#FFF0DB" stroke="#D97706" stroke-width="1.8"/>
<text x="915.0" y="312.0" text-anchor="middle" font-family="Helvetica,Arial,sans-serif" font-size="9" fill="#7C4300">SimpleGraph.chromaticNumber</text>
<text x="915.0" y="324.0" text-anchor="middle" font-family="Helvetica,Arial,sans-serif" font-size="9" fill="#7C4300">_ne_top_iff_exists</text>
<rect x="854.0" y="212.0" width="122" height="27" rx="7" fill="#F3ECFF" stroke="#7D4CC2" stroke-width="1.2"/>
<text x="915.0" y="230.0" text-anchor="middle" font-family="Helvetica,Arial,sans-serif" font-size="10" fill="#60349A">retrieved leanfinder:43</text>
<path d="M 915.0 239.0 L 915.0 262.0" stroke="#7D4CC2" stroke-width="1.2" stroke-dasharray="5 4" fill="none"/>
<path d="M 1750 240.0 L 1840.0 266.6666666666667" stroke="#315A7D" stroke-width="1.8" fill="none" marker-end="url(#arrow)"/>
<path d="M 1280 320.0 L 1840.0 266.6666666666667" stroke="#315A7D" stroke-width="1.8" fill="none" marker-end="url(#arrow)"/>
<path d="M 1870.0 266.6666666666667 L 1960 240.0" stroke="#315A7D" stroke-width="1.8" fill="none" marker-end="url(#arrow)"/>
<polygon points="1855.0,249.66666666666669 1872.0,266.6666666666667 1855.0,283.6666666666667 1838.0,266.6666666666667" fill="#FFF0DB" stroke="#D97706" stroke-width="1.8"/>
<text x="1855.0" y="298.6666666666667" text-anchor="middle" font-family="Helvetica,Arial,sans-serif" font-size="9" fill="#7C4300">ENat.coe_toNat + SimpleGrap</text>
<text x="1855.0" y="310.6666666666667" text-anchor="middle" font-family="Helvetica,Arial,sans-serif" font-size="9" fill="#7C4300">h.Colorable.chromaticNumber</text>
<text x="1855.0" y="322.6666666666667" text-anchor="middle" font-family="Helvetica,Arial,sans-serif" font-size="9" fill="#7C4300">_le</text>
<rect x="1794.0" y="198.66666666666669" width="122" height="27" rx="7" fill="#F3ECFF" stroke="#7D4CC2" stroke-width="1.2"/>
<text x="1855.0" y="216.66666666666669" text-anchor="middle" font-family="Helvetica,Arial,sans-serif" font-size="10" fill="#60349A">retrieved loogle:42, loogle:0</text>
<path d="M 1855.0 225.66666666666669 L 1855.0 248.66666666666669" stroke="#7D4CC2" stroke-width="1.2" stroke-dasharray="5 4" fill="none"/>
<path d="M 340 320.0 L 2310.0 240.0" stroke="#315A7D" stroke-width="1.8" fill="none" marker-end="url(#arrow)"/>
<path d="M 340 160.0 L 2310.0 240.0" stroke="#315A7D" stroke-width="1.8" fill="none" marker-end="url(#arrow)"/>
<path d="M 2220 240.0 L 2310.0 240.0" stroke="#315A7D" stroke-width="1.8" fill="none" marker-end="url(#arrow)"/>
<path d="M 2340.0 240.0 L 2430 240.0" stroke="#315A7D" stroke-width="1.8" fill="none" marker-end="url(#arrow)"/>
<polygon points="2325.0,223.0 2342.0,240.0 2325.0,257.0 2308.0,240.0" fill="#FFF0DB" stroke="#D97706" stroke-width="1.8"/>
<text x="2325.0" y="272.0" text-anchor="middle" font-family="Helvetica,Arial,sans-serif" font-size="9" fill="#7C4300">Rollout_p0613_chromaticnumb</text>
<text x="2325.0" y="284.0" text-anchor="middle" font-family="Helvetica,Arial,sans-serif" font-size="9" fill="#7C4300">er_cartesianpower.cartesian</text>
<text x="2325.0" y="296.0" text-anchor="middle" font-family="Helvetica,Arial,sans-serif" font-size="9" fill="#7C4300">Power_chromaticNumber_lowe…</text>
<rect x="80" y="116.0" width="260" height="88" rx="11" fill="#E7F6F3" stroke="#178F82" stroke-width="2"/>
<text x="90" y="140.0" font-family="Helvetica,Arial,sans-serif" font-size="10" font-weight="700" fill="#178F82">hk</text>
<text x="210.0" y="158.0" text-anchor="middle" font-family="Menlo,monospace" font-size="10" fill="#23384D">1 ≤ k</text>
<rect x="80" y="276.0" width="260" height="88" rx="11" fill="#E7F6F3" stroke="#178F82" stroke-width="2"/>
<text x="90" y="300.0" font-family="Helvetica,Arial,sans-serif" font-size="10" font-weight="700" fill="#178F82">hn</text>
<text x="210.0" y="318.0" text-anchor="middle" font-family="Menlo,monospace" font-size="10" fill="#23384D">0 &lt; n</text>
<rect x="2430" y="196.0" width="260" height="88" rx="11" fill="#EAF7EC" stroke="#2E8B57" stroke-width="2"/>
<text x="2440" y="220.0" font-family="Helvetica,Arial,sans-serif" font-size="10" font-weight="700" fill="#2E8B57">goal</text>
<text x="2560.0" y="238.0" text-anchor="middle" font-family="Menlo,monospace" font-size="10" fill="#23384D">(SimpleGraph.fromRel fun x y</text>
<text x="2560.0" y="252.0" text-anchor="middle" font-family="Menlo,monospace" font-size="10" fill="#23384D">=&gt; ∃ i, G.Adj (x i) (y i) ∧ ∀</text>
<text x="2560.0" y="266.0" text-anchor="middle" font-family="Menlo,monospace" font-size="10" fill="#23384D">(j : Fin k), j ≠ i → x j = y</text>
<text x="2560.0" y="280.0" text-anchor="middle" font-family="Menlo,monospace" font-size="10" fill="#23384D">j).chromaticNumber …</text>
<rect x="550" y="196.0" width="260" height="88" rx="11" fill="#FFF4E5" stroke="#D97706" stroke-width="2"/>
<text x="560" y="220.0" font-family="Helvetica,Arial,sans-serif" font-size="10" font-weight="700" fill="#D97706">hcG</text>
<text x="680.0" y="238.0" text-anchor="middle" font-family="Menlo,monospace" font-size="10" fill="#23384D">G.Colorable q</text>
<rect x="1490" y="196.0" width="260" height="88" rx="11" fill="#FFF4E5" stroke="#D97706" stroke-width="2"/>
<text x="1500" y="220.0" font-family="Helvetica,Arial,sans-serif" font-size="10" font-weight="700" fill="#D97706">hcolor</text>
<text x="1620.0" y="238.0" text-anchor="middle" font-family="Menlo,monospace" font-size="10" fill="#23384D">(SimpleGraph.fromRel fun x y</text>
<text x="1620.0" y="252.0" text-anchor="middle" font-family="Menlo,monospace" font-size="10" fill="#23384D">=&gt; ∃ i, G.Adj (x i) (y i) ∧ ∀</text>
<text x="1620.0" y="266.0" text-anchor="middle" font-family="Menlo,monospace" font-size="10" fill="#23384D">(j : Fin k), j ≠ i → x j = y</text>
<text x="1620.0" y="280.0" text-anchor="middle" font-family="Menlo,monospace" font-size="10" fill="#23384D">j).Colorable q</text>
<rect x="1020" y="116.0" width="260" height="88" rx="11" fill="#FFF4E5" stroke="#D97706" stroke-width="2"/>
<text x="1030" y="140.0" font-family="Helvetica,Arial,sans-serif" font-size="10" font-weight="700" fill="#D97706">hq</text>
<text x="1150.0" y="158.0" text-anchor="middle" font-family="Menlo,monospace" font-size="10" fill="#23384D">q ≠ 0</text>
<rect x="1020" y="276.0" width="260" height="88" rx="11" fill="#FFF4E5" stroke="#D97706" stroke-width="2"/>
<text x="1030" y="300.0" font-family="Helvetica,Arial,sans-serif" font-size="10" font-weight="700" fill="#D97706">htop</text>
<text x="1150.0" y="318.0" text-anchor="middle" font-family="Menlo,monospace" font-size="10" fill="#23384D">G.chromaticNumber ≠ ⊤</text>
<rect x="1960" y="196.0" width="260" height="88" rx="11" fill="#FFF4E5" stroke="#D97706" stroke-width="2"/>
<text x="1970" y="220.0" font-family="Helvetica,Arial,sans-serif" font-size="10" font-weight="700" fill="#D97706">upper</text>
<text x="2090.0" y="238.0" text-anchor="middle" font-family="Menlo,monospace" font-size="10" fill="#23384D">(SimpleGraph.fromRel fun x y</text>
<text x="2090.0" y="252.0" text-anchor="middle" font-family="Menlo,monospace" font-size="10" fill="#23384D">=&gt; ∃ i, G.Adj (x i) (y i) ∧ ∀</text>
<text x="2090.0" y="266.0" text-anchor="middle" font-family="Menlo,monospace" font-size="10" fill="#23384D">(j : Fin k), j ≠ i → x j = y</text>
<text x="2090.0" y="280.0" text-anchor="middle" font-family="Menlo,monospace" font-size="10" fill="#23384D">j).chromaticNumber …</text>
</svg>
