<svg xmlns="http://www.w3.org/2000/svg" width="1120" height="1120" viewBox="0 0 1120 1120">
<defs><marker id="arrow" viewBox="0 0 10 10" refX="9" refY="5" markerWidth="7" markerHeight="7" orient="auto-start-reverse"><path d="M 0 0 L 10 5 L 0 10 z" fill="#315A7D"/></marker></defs>
<rect width="100%" height="100%" fill="white"/>
<text x="28" y="32" font-family="Helvetica,Arial,sans-serif" font-size="18" font-weight="700" fill="#17324D">proposition_4_2</text>
<path d="M 340 960.0 L 430.0 560.0" stroke="#315A7D" stroke-width="1.8" fill="none" marker-end="url(#arrow)"/>
<path d="M 340 800.0 L 430.0 560.0" stroke="#315A7D" stroke-width="1.8" fill="none" marker-end="url(#arrow)"/>
<path d="M 340 160.0 L 430.0 560.0" stroke="#315A7D" stroke-width="1.8" fill="none" marker-end="url(#arrow)"/>
<path d="M 340 320.0 L 430.0 560.0" stroke="#315A7D" stroke-width="1.8" fill="none" marker-end="url(#arrow)"/>
<path d="M 340 480.0 L 430.0 560.0" stroke="#315A7D" stroke-width="1.8" fill="none" marker-end="url(#arrow)"/>
<path d="M 340 640.0 L 430.0 560.0" stroke="#315A7D" stroke-width="1.8" fill="none" marker-end="url(#arrow)"/>
<path d="M 460.0 560.0 L 550 560.0" stroke="#315A7D" stroke-width="1.8" fill="none" marker-end="url(#arrow)"/>
<polygon points="445.0,543.0 462.0,560.0 445.0,577.0 428.0,560.0" fill="#FFF0DB" stroke="#D97706" stroke-width="1.8"/>
<text x="445.0" y="592.0" text-anchor="middle" font-family="Helvetica,Arial,sans-serif" font-size="9" fill="#7C4300">Matrix.GeneralLinearGroup.v</text>
<text x="445.0" y="604.0" text-anchor="middle" font-family="Helvetica,Arial,sans-serif" font-size="9" fill="#7C4300">al_map_apply +</text>
<text x="445.0" y="616.0" text-anchor="middle" font-family="Helvetica,Arial,sans-serif" font-size="9" fill="#7C4300">RingHom.mapMatrix_apply …</text>
<rect x="384.0" y="492.0" width="122" height="27" rx="7" fill="#F3ECFF" stroke="#7D4CC2" stroke-width="1.2"/>
<text x="445.0" y="510.0" text-anchor="middle" font-family="Helvetica,Arial,sans-serif" font-size="10" fill="#60349A">retrieved loogle:98, loogle:87</text>
<path d="M 445.0 519.0 L 445.0 542.0" stroke="#7D4CC2" stroke-width="1.2" stroke-dasharray="5 4" fill="none"/>
<rect x="80" y="116.0" width="260" height="88" rx="11" fill="#E7F6F3" stroke="#178F82" stroke-width="2"/>
<text x="90" y="140.0" font-family="Helvetica,Arial,sans-serif" font-size="10" font-weight="700" fill="#178F82">hγe₁e₁</text>
<text x="210.0" y="158.0" text-anchor="middle" font-family="Menlo,monospace" font-size="10" fill="#23384D">↑γ (Sum.inl 0) (Sum.inl 0) = 1</text>
<rect x="80" y="276.0" width="260" height="88" rx="11" fill="#E7F6F3" stroke="#178F82" stroke-width="2"/>
<text x="90" y="300.0" font-family="Helvetica,Arial,sans-serif" font-size="10" font-weight="700" fill="#178F82">hγe₁e₂</text>
<text x="210.0" y="318.0" text-anchor="middle" font-family="Menlo,monospace" font-size="10" fill="#23384D">↑γ (Sum.inl 1) (Sum.inl 0) = 1</text>
<rect x="80" y="436.0" width="260" height="88" rx="11" fill="#E7F6F3" stroke="#178F82" stroke-width="2"/>
<text x="90" y="460.0" font-family="Helvetica,Arial,sans-serif" font-size="10" font-weight="700" fill="#178F82">hγe₁f₁</text>
<text x="210.0" y="478.0" text-anchor="middle" font-family="Menlo,monospace" font-size="10" fill="#23384D">↑γ (Sum.inr 0) (Sum.inl 0) = 0</text>
<rect x="80" y="596.0" width="260" height="88" rx="11" fill="#E7F6F3" stroke="#178F82" stroke-width="2"/>
<text x="90" y="620.0" font-family="Helvetica,Arial,sans-serif" font-size="10" font-weight="700" fill="#178F82">hγe₁f₂</text>
<text x="210.0" y="638.0" text-anchor="middle" font-family="Menlo,monospace" font-size="10" fill="#23384D">↑γ (Sum.inr 1) (Sum.inl 0) = 0</text>
<rect x="80" y="756.0" width="260" height="88" rx="11" fill="#E7F6F3" stroke="#178F82" stroke-width="2"/>
<text x="90" y="780.0" font-family="Helvetica,Arial,sans-serif" font-size="10" font-weight="700" fill="#178F82">hγGSp</text>
<text x="210.0" y="798.0" text-anchor="middle" font-family="Menlo,monospace" font-size="10" fill="#23384D">∃ μ, (↑γ).transpose * Matrix.J</text>
<text x="210.0" y="812.0" text-anchor="middle" font-family="Menlo,monospace" font-size="10" fill="#23384D">(Fin 2) ℤ_[p] * ↑γ = ↑μ •</text>
<text x="210.0" y="826.0" text-anchor="middle" font-family="Menlo,monospace" font-size="10" fill="#23384D">Matrix.J (Fin 2) ℤ_[p]</text>
<rect x="80" y="916.0" width="260" height="88" rx="11" fill="#E7F6F3" stroke="#178F82" stroke-width="2"/>
<text x="90" y="940.0" font-family="Helvetica,Arial,sans-serif" font-size="10" font-weight="700" fill="#178F82">inst._@.proofs.1926733331._hygCtx._hyg.8</text>
<text x="210.0" y="958.0" text-anchor="middle" font-family="Menlo,monospace" font-size="10" fill="#23384D">Fact (Nat.Prime p)</text>
<rect x="550" y="516.0" width="260" height="88" rx="11" fill="#EAF7EC" stroke="#2E8B57" stroke-width="2"/>
<text x="560" y="540.0" font-family="Helvetica,Arial,sans-serif" font-size="10" font-weight="700" fill="#2E8B57">goal</text>
<text x="680.0" y="558.0" text-anchor="middle" font-family="Menlo,monospace" font-size="10" fill="#23384D">{h | (∃ A B, (↑A).det =</text>
<text x="680.0" y="572.0" text-anchor="middle" font-family="Menlo,monospace" font-size="10" fill="#23384D">(↑B).det ∧ h =</text>
<text x="680.0" y="586.0" text-anchor="middle" font-family="Menlo,monospace" font-size="10" fill="#23384D">Matrix.fromBlocks</text>
<text x="680.0" y="600.0" text-anchor="middle" font-family="Menlo,monospace" font-size="10" fill="#23384D">(Matrix.diagonal ![↑A 0 0, ↑…</text>
</svg>
