<svg xmlns="http://www.w3.org/2000/svg" width="4410" height="800" viewBox="0 0 4410 800">
<defs><marker id="arrow" viewBox="0 0 10 10" refX="9" refY="5" markerWidth="7" markerHeight="7" orient="auto-start-reverse"><path d="M 0 0 L 10 5 L 0 10 z" fill="#315A7D"/></marker></defs>
<rect width="100%" height="100%" fill="white"/>
<text x="28" y="32" font-family="Helvetica,Arial,sans-serif" font-size="18" font-weight="700" fill="#17324D">laurent_circulant_kernel</text>
<path d="M 340 160.0 L 430.0 320.0" stroke="#315A7D" stroke-width="1.8" fill="none" marker-end="url(#arrow)"/>
<path d="M 460.0 320.0 L 550 480.0" stroke="#315A7D" stroke-width="1.8" fill="none" marker-end="url(#arrow)"/>
<polygon points="445.0,303.0 462.0,320.0 445.0,337.0 428.0,320.0" fill="#FFF0DB" stroke="#D97706" stroke-width="1.8"/>
<text x="445.0" y="352.0" text-anchor="middle" font-family="Helvetica,Arial,sans-serif" font-size="9" fill="#7C4300">proof_term_composition</text>
<path d="M 810 480.0 L 900.0 533.3333333333334" stroke="#315A7D" stroke-width="1.8" fill="none" marker-end="url(#arrow)"/>
<path d="M 340 640.0 L 900.0 533.3333333333334" stroke="#315A7D" stroke-width="1.8" fill="none" marker-end="url(#arrow)"/>
<path d="M 930.0 533.3333333333334 L 1020 480.0" stroke="#315A7D" stroke-width="1.8" fill="none" marker-end="url(#arrow)"/>
<polygon points="915.0,516.3333333333334 932.0,533.3333333333334 915.0,550.3333333333334 898.0,533.3333333333334" fill="#FFF0DB" stroke="#D97706" stroke-width="1.8"/>
<text x="915.0" y="565.3333333333334" text-anchor="middle" font-family="Helvetica,Arial,sans-serif" font-size="9" fill="#7C4300">proof_term_composition</text>
<path d="M 340 160.0 L 1370.0 368.0" stroke="#315A7D" stroke-width="1.8" fill="none" marker-end="url(#arrow)"/>
<path d="M 340 320.0 L 1370.0 368.0" stroke="#315A7D" stroke-width="1.8" fill="none" marker-end="url(#arrow)"/>
<path d="M 810 480.0 L 1370.0 368.0" stroke="#315A7D" stroke-width="1.8" fill="none" marker-end="url(#arrow)"/>
<path d="M 1280 480.0 L 1370.0 368.0" stroke="#315A7D" stroke-width="1.8" fill="none" marker-end="url(#arrow)"/>
<path d="M 1400.0 368.0 L 1490 400.0" stroke="#315A7D" stroke-width="1.8" fill="none" marker-end="url(#arrow)"/>
<polygon points="1385.0,351.0 1402.0,368.0 1385.0,385.0 1368.0,368.0" fill="#FFF0DB" stroke="#D97706" stroke-width="1.8"/>
<text x="1385.0" y="400.0" text-anchor="middle" font-family="Helvetica,Arial,sans-serif" font-size="9" fill="#7C4300">laurentCirculantB_mulVec_fa</text>
<text x="1385.0" y="412.0" text-anchor="middle" font-family="Helvetica,Arial,sans-serif" font-size="9" fill="#7C4300">ctor + congrFun</text>
<path d="M 810 480.0 L 900.0 400.0" stroke="#315A7D" stroke-width="1.8" fill="none" marker-end="url(#arrow)"/>
<path d="M 930.0 400.0 L 1020 320.0" stroke="#315A7D" stroke-width="1.8" fill="none" marker-end="url(#arrow)"/>
<polygon points="915.0,383.0 932.0,400.0 915.0,417.0 898.0,400.0" fill="#FFF0DB" stroke="#D97706" stroke-width="1.8"/>
<text x="915.0" y="432.0" text-anchor="middle" font-family="Helvetica,Arial,sans-serif" font-size="9" fill="#7C4300">laurent_neg_one_t_pow_ne</text>
<path d="M 810 480.0 L 1840.0 400.0" stroke="#315A7D" stroke-width="1.8" fill="none" marker-end="url(#arrow)"/>
<path d="M 1750 400.0 L 1840.0 400.0" stroke="#315A7D" stroke-width="1.8" fill="none" marker-end="url(#arrow)"/>
<path d="M 1280 320.0 L 1840.0 400.0" stroke="#315A7D" stroke-width="1.8" fill="none" marker-end="url(#arrow)"/>
<path d="M 1870.0 400.0 L 1960 400.0" stroke="#315A7D" stroke-width="1.8" fill="none" marker-end="url(#arrow)"/>
<polygon points="1855.0,383.0 1872.0,400.0 1855.0,417.0 1838.0,400.0" fill="#FFF0DB" stroke="#D97706" stroke-width="1.8"/>
<text x="1855.0" y="432.0" text-anchor="middle" font-family="Helvetica,Arial,sans-serif" font-size="9" fill="#7C4300">zmod_recur_eq_zero</text>
<path d="M 340 480.0 L 430.0 400.0" stroke="#315A7D" stroke-width="1.8" fill="none" marker-end="url(#arrow)"/>
<path d="M 460.0 400.0 L 550 320.0" stroke="#315A7D" stroke-width="1.8" fill="none" marker-end="url(#arrow)"/>
<polygon points="445.0,383.0 462.0,400.0 445.0,417.0 428.0,400.0" fill="#FFF0DB" stroke="#D97706" stroke-width="1.8"/>
<text x="445.0" y="432.0" text-anchor="middle" font-family="Helvetica,Arial,sans-serif" font-size="9" fill="#7C4300">Nat.coprime_self_add_right</text>
<rect x="384.0" y="332.0" width="122" height="27" rx="7" fill="#F3ECFF" stroke="#7D4CC2" stroke-width="1.2"/>
<text x="445.0" y="350.0" text-anchor="middle" font-family="Helvetica,Arial,sans-serif" font-size="10" fill="#60349A">retrieved loogle:18</text>
<path d="M 445.0 359.0 L 445.0 382.0" stroke="#7D4CC2" stroke-width="1.2" stroke-dasharray="5 4" fill="none"/>
<path d="M 2220 400.0 L 2310.0 400.0" stroke="#315A7D" stroke-width="1.8" fill="none" marker-end="url(#arrow)"/>
<path d="M 2340.0 400.0 L 2430 400.0" stroke="#315A7D" stroke-width="1.8" fill="none" marker-end="url(#arrow)"/>
<polygon points="2325.0,383.0 2342.0,400.0 2325.0,417.0 2308.0,400.0" fill="#FFF0DB" stroke="#D97706" stroke-width="1.8"/>
<text x="2325.0" y="432.0" text-anchor="middle" font-family="Helvetica,Arial,sans-serif" font-size="9" fill="#7C4300">sub_eq_zero</text>
<path d="M 810 480.0 L 2780.0 400.0" stroke="#315A7D" stroke-width="1.8" fill="none" marker-end="url(#arrow)"/>
<path d="M 810 320.0 L 2780.0 400.0" stroke="#315A7D" stroke-width="1.8" fill="none" marker-end="url(#arrow)"/>
<path d="M 2690 400.0 L 2780.0 400.0" stroke="#315A7D" stroke-width="1.8" fill="none" marker-end="url(#arrow)"/>
<path d="M 2810.0 400.0 L 2900 400.0" stroke="#315A7D" stroke-width="1.8" fill="none" marker-end="url(#arrow)"/>
<polygon points="2795.0,383.0 2812.0,400.0 2795.0,417.0 2778.0,400.0" fill="#FFF0DB" stroke="#D97706" stroke-width="1.8"/>
<text x="2795.0" y="432.0" text-anchor="middle" font-family="Helvetica,Arial,sans-serif" font-size="9" fill="#7C4300">eq_of_forall_sub_natCast_zm</text>
<text x="2795.0" y="444.0" text-anchor="middle" font-family="Helvetica,Arial,sans-serif" font-size="9" fill="#7C4300">od</text>
<path d="M 340 160.0 L 3250.0 360.0" stroke="#315A7D" stroke-width="1.8" fill="none" marker-end="url(#arrow)"/>
<path d="M 810 480.0 L 3250.0 360.0" stroke="#315A7D" stroke-width="1.8" fill="none" marker-end="url(#arrow)"/>
<path d="M 3160 400.0 L 3250.0 360.0" stroke="#315A7D" stroke-width="1.8" fill="none" marker-end="url(#arrow)"/>
<path d="M 3280.0 360.0 L 3370 400.0" stroke="#315A7D" stroke-width="1.8" fill="none" marker-end="url(#arrow)"/>
<polygon points="3265.0,343.0 3282.0,360.0 3265.0,377.0 3248.0,360.0" fill="#FFF0DB" stroke="#D97706" stroke-width="1.8"/>
<text x="3265.0" y="392.0" text-anchor="middle" font-family="Helvetica,Arial,sans-serif" font-size="9" fill="#7C4300">zmod_window_succ_sub +</text>
<text x="3265.0" y="404.0" text-anchor="middle" font-family="Helvetica,Arial,sans-serif" font-size="9" fill="#7C4300">sub_eq_zero</text>
<path d="M 810 480.0 L 3720.0 400.0" stroke="#315A7D" stroke-width="1.8" fill="none" marker-end="url(#arrow)"/>
<path d="M 810 320.0 L 3720.0 400.0" stroke="#315A7D" stroke-width="1.8" fill="none" marker-end="url(#arrow)"/>
<path d="M 3630 400.0 L 3720.0 400.0" stroke="#315A7D" stroke-width="1.8" fill="none" marker-end="url(#arrow)"/>
<path d="M 3750.0 400.0 L 3840 400.0" stroke="#315A7D" stroke-width="1.8" fill="none" marker-end="url(#arrow)"/>
<polygon points="3735.0,383.0 3752.0,400.0 3735.0,417.0 3718.0,400.0" fill="#FFF0DB" stroke="#D97706" stroke-width="1.8"/>
<text x="3735.0" y="432.0" text-anchor="middle" font-family="Helvetica,Arial,sans-serif" font-size="9" fill="#7C4300">eq_of_forall_sub_natCast_zm</text>
<text x="3735.0" y="444.0" text-anchor="middle" font-family="Helvetica,Arial,sans-serif" font-size="9" fill="#7C4300">od</text>
<rect x="80" y="116.0" width="260" height="88" rx="11" fill="#E7F6F3" stroke="#178F82" stroke-width="2"/>
<text x="90" y="140.0" font-family="Helvetica,Arial,sans-serif" font-size="10" font-weight="700" fill="#178F82">ha</text>
<text x="210.0" y="158.0" text-anchor="middle" font-family="Menlo,monospace" font-size="10" fill="#23384D">0 &lt; a</text>
<rect x="80" y="276.0" width="260" height="88" rx="11" fill="#E7F6F3" stroke="#178F82" stroke-width="2"/>
<text x="90" y="300.0" font-family="Helvetica,Arial,sans-serif" font-size="10" font-weight="700" fill="#178F82">hab</text>
<text x="210.0" y="318.0" text-anchor="middle" font-family="Menlo,monospace" font-size="10" fill="#23384D">a &lt; b</text>
<rect x="80" y="436.0" width="260" height="88" rx="11" fill="#E7F6F3" stroke="#178F82" stroke-width="2"/>
<text x="90" y="460.0" font-family="Helvetica,Arial,sans-serif" font-size="10" font-weight="700" fill="#178F82">hab_coprime</text>
<text x="210.0" y="478.0" text-anchor="middle" font-family="Menlo,monospace" font-size="10" fill="#23384D">a.Coprime b</text>
<rect x="80" y="596.0" width="260" height="88" rx="11" fill="#E7F6F3" stroke="#178F82" stroke-width="2"/>
<text x="90" y="620.0" font-family="Helvetica,Arial,sans-serif" font-size="10" font-weight="700" fill="#178F82">hv</text>
<text x="210.0" y="638.0" text-anchor="middle" font-family="Menlo,monospace" font-size="10" fill="#23384D">B.mulVec v = 0</text>
<rect x="3840" y="356.0" width="260" height="88" rx="11" fill="#EAF7EC" stroke="#2E8B57" stroke-width="2"/>
<text x="3850" y="380.0" font-family="Helvetica,Arial,sans-serif" font-size="10" font-weight="700" fill="#2E8B57">goal</text>
<text x="3970.0" y="398.0" text-anchor="middle" font-family="Menlo,monospace" font-size="10" fill="#23384D">v i = v j</text>
<rect x="550" y="276.0" width="260" height="88" rx="11" fill="#FFF4E5" stroke="#D97706" stroke-width="2"/>
<text x="560" y="300.0" font-family="Helvetica,Arial,sans-serif" font-size="10" font-weight="700" fill="#D97706">hcop</text>
<text x="680.0" y="318.0" text-anchor="middle" font-family="Menlo,monospace" font-size="10" fill="#23384D">a.Coprime (a + b)</text>
<rect x="550" y="436.0" width="260" height="88" rx="11" fill="#F4F4F4" stroke="#80868B" stroke-width="2"/>
<text x="560" y="460.0" font-family="Helvetica,Arial,sans-serif" font-size="10" font-weight="700" fill="#80868B">hNe</text>
<text x="680.0" y="478.0" text-anchor="middle" font-family="Menlo,monospace" font-size="10" fill="#23384D">NeZero (a + b)</text>
<rect x="1490" y="356.0" width="260" height="88" rx="11" fill="#FFF4E5" stroke="#D97706" stroke-width="2"/>
<text x="1500" y="380.0" font-family="Helvetica,Arial,sans-serif" font-size="10" font-weight="700" fill="#D97706">hrec</text>
<text x="1620.0" y="398.0" text-anchor="middle" font-family="Menlo,monospace" font-size="10" fill="#23384D">∀ (r : ZMod (a + b)), x r + t</text>
<text x="1620.0" y="412.0" text-anchor="middle" font-family="Menlo,monospace" font-size="10" fill="#23384D">* x (r + 1) = 0</text>
<rect x="1020" y="276.0" width="260" height="88" rx="11" fill="#FFF4E5" stroke="#D97706" stroke-width="2"/>
<text x="1030" y="300.0" font-family="Helvetica,Arial,sans-serif" font-size="10" font-weight="700" fill="#D97706">ht</text>
<text x="1150.0" y="318.0" text-anchor="middle" font-family="Menlo,monospace" font-size="10" fill="#23384D">t ^ (a + b) ≠ (-1) ^ (a + b)</text>
<rect x="1020" y="436.0" width="260" height="88" rx="11" fill="#FFF4E5" stroke="#D97706" stroke-width="2"/>
<text x="1030" y="460.0" font-family="Helvetica,Arial,sans-serif" font-size="10" font-weight="700" fill="#D97706">hv&#x27;</text>
<text x="1150.0" y="478.0" text-anchor="middle" font-family="Menlo,monospace" font-size="10" fill="#23384D">(Rollout_p3019_laurent_circula</text>
<text x="1150.0" y="492.0" text-anchor="middle" font-family="Menlo,monospace" font-size="10" fill="#23384D">nt_kernel.laurentCirculantB a</text>
<text x="1150.0" y="506.0" text-anchor="middle" font-family="Menlo,monospace" font-size="10" fill="#23384D">b ε).mulVec v = 0</text>
<rect x="3370" y="356.0" width="260" height="88" rx="11" fill="#FFF4E5" stroke="#D97706" stroke-width="2"/>
<text x="3380" y="380.0" font-family="Helvetica,Arial,sans-serif" font-size="10" font-weight="700" fill="#D97706">hvinv</text>
<text x="3500.0" y="398.0" text-anchor="middle" font-family="Menlo,monospace" font-size="10" fill="#23384D">∀ (r : ZMod (a + b)), v r = v</text>
<text x="3500.0" y="412.0" text-anchor="middle" font-family="Menlo,monospace" font-size="10" fill="#23384D">(r - ↑a)</text>
<rect x="2900" y="356.0" width="260" height="88" rx="11" fill="#FFF4E5" stroke="#D97706" stroke-width="2"/>
<text x="2910" y="380.0" font-family="Helvetica,Arial,sans-serif" font-size="10" font-weight="700" fill="#D97706">hweq</text>
<text x="3030.0" y="398.0" text-anchor="middle" font-family="Menlo,monospace" font-size="10" fill="#23384D">∀ (i j : ZMod (a + b)), w i =</text>
<text x="3030.0" y="412.0" text-anchor="middle" font-family="Menlo,monospace" font-size="10" fill="#23384D">w j</text>
<rect x="2430" y="356.0" width="260" height="88" rx="11" fill="#FFF4E5" stroke="#D97706" stroke-width="2"/>
<text x="2440" y="380.0" font-family="Helvetica,Arial,sans-serif" font-size="10" font-weight="700" fill="#D97706">hwinv</text>
<text x="2560.0" y="398.0" text-anchor="middle" font-family="Menlo,monospace" font-size="10" fill="#23384D">∀ (r : ZMod (a + b)), w r = w</text>
<text x="2560.0" y="412.0" text-anchor="middle" font-family="Menlo,monospace" font-size="10" fill="#23384D">(r - ↑a)</text>
<rect x="1960" y="356.0" width="260" height="88" rx="11" fill="#FFF4E5" stroke="#D97706" stroke-width="2"/>
<text x="1970" y="380.0" font-family="Helvetica,Arial,sans-serif" font-size="10" font-weight="700" fill="#D97706">hx</text>
<text x="2090.0" y="398.0" text-anchor="middle" font-family="Menlo,monospace" font-size="10" fill="#23384D">∀ (r : ZMod (a + b)), x r = 0</text>
</svg>
