<svg xmlns="http://www.w3.org/2000/svg" width="2530" height="640" viewBox="0 0 2530 640">
<defs><marker id="arrow" viewBox="0 0 10 10" refX="9" refY="5" markerWidth="7" markerHeight="7" orient="auto-start-reverse"><path d="M 0 0 L 10 5 L 0 10 z" fill="#315A7D"/></marker></defs>
<rect width="100%" height="100%" fill="white"/>
<text x="28" y="32" font-family="Helvetica,Arial,sans-serif" font-size="18" font-weight="700" fill="#17324D">probability_measure_open_unit_interval_unique_solution</text>
<path d="M 340 320.0 L 430.0 240.0" stroke="#315A7D" stroke-width="1.8" fill="none" marker-end="url(#arrow)"/>
<path d="M 460.0 240.0 L 550 160.0" stroke="#315A7D" stroke-width="1.8" fill="none" marker-end="url(#arrow)"/>
<polygon points="445.0,223.0 462.0,240.0 445.0,257.0 428.0,240.0" fill="#FFF0DB" stroke="#D97706" stroke-width="1.8"/>
<text x="445.0" y="272.0" text-anchor="middle" font-family="Helvetica,Arial,sans-serif" font-size="9" fill="#7C4300">F_continuousOn_Icc</text>
<path d="M 340 320.0 L 430.0 320.0" stroke="#315A7D" stroke-width="1.8" fill="none" marker-end="url(#arrow)"/>
<path d="M 460.0 320.0 L 550 320.0" stroke="#315A7D" stroke-width="1.8" fill="none" marker-end="url(#arrow)"/>
<polygon points="445.0,303.0 462.0,320.0 445.0,337.0 428.0,320.0" fill="#FFF0DB" stroke="#D97706" stroke-width="1.8"/>
<text x="445.0" y="352.0" text-anchor="middle" font-family="Helvetica,Arial,sans-serif" font-size="9" fill="#7C4300">F_quarter_lt_one</text>
<path d="M 340 320.0 L 430.0 400.0" stroke="#315A7D" stroke-width="1.8" fill="none" marker-end="url(#arrow)"/>
<path d="M 460.0 400.0 L 550 480.0" stroke="#315A7D" stroke-width="1.8" fill="none" marker-end="url(#arrow)"/>
<polygon points="445.0,383.0 462.0,400.0 445.0,417.0 428.0,400.0" fill="#FFF0DB" stroke="#D97706" stroke-width="1.8"/>
<text x="445.0" y="432.0" text-anchor="middle" font-family="Helvetica,Arial,sans-serif" font-size="9" fill="#7C4300">F_one_gt_one</text>
<path d="M 810 320.0 L 900.0 373.3333333333333" stroke="#315A7D" stroke-width="1.8" fill="none" marker-end="url(#arrow)"/>
<path d="M 810 480.0 L 900.0 373.3333333333333" stroke="#315A7D" stroke-width="1.8" fill="none" marker-end="url(#arrow)"/>
<path d="M 930.0 373.3333333333333 L 1020 320.0" stroke="#315A7D" stroke-width="1.8" fill="none" marker-end="url(#arrow)"/>
<polygon points="915.0,356.3333333333333 932.0,373.3333333333333 915.0,390.3333333333333 898.0,373.3333333333333" fill="#FFF0DB" stroke="#D97706" stroke-width="1.8"/>
<text x="915.0" y="405.3333333333333" text-anchor="middle" font-family="Helvetica,Arial,sans-serif" font-size="9" fill="#7C4300">proof_term_composition</text>
<path d="M 810 160.0 L 1370.0 266.6666666666667" stroke="#315A7D" stroke-width="1.8" fill="none" marker-end="url(#arrow)"/>
<path d="M 1280 320.0 L 1370.0 266.6666666666667" stroke="#315A7D" stroke-width="1.8" fill="none" marker-end="url(#arrow)"/>
<path d="M 1400.0 266.6666666666667 L 1490 320.0" stroke="#315A7D" stroke-width="1.8" fill="none" marker-end="url(#arrow)"/>
<polygon points="1385.0,249.66666666666669 1402.0,266.6666666666667 1385.0,283.6666666666667 1368.0,266.6666666666667" fill="#FFF0DB" stroke="#D97706" stroke-width="1.8"/>
<text x="1385.0" y="298.6666666666667" text-anchor="middle" font-family="Helvetica,Arial,sans-serif" font-size="9" fill="#7C4300">intermediate_value_Ioo</text>
<rect x="1324.0" y="198.66666666666669" width="122" height="27" rx="7" fill="#F3ECFF" stroke="#7D4CC2" stroke-width="1.2"/>
<text x="1385.0" y="216.66666666666669" text-anchor="middle" font-family="Helvetica,Arial,sans-serif" font-size="10" fill="#60349A">retrieved loogle:67, leanfinder:68</text>
<path d="M 1385.0 225.66666666666669 L 1385.0 248.66666666666669" stroke="#7D4CC2" stroke-width="1.2" stroke-dasharray="5 4" fill="none"/>
<path d="M 340 320.0 L 1840.0 320.0" stroke="#315A7D" stroke-width="1.8" fill="none" marker-end="url(#arrow)"/>
<path d="M 1750 320.0 L 1840.0 320.0" stroke="#315A7D" stroke-width="1.8" fill="none" marker-end="url(#arrow)"/>
<path d="M 1870.0 320.0 L 1960 320.0" stroke="#315A7D" stroke-width="1.8" fill="none" marker-end="url(#arrow)"/>
<polygon points="1855.0,303.0 1872.0,320.0 1855.0,337.0 1838.0,320.0" fill="#FFF0DB" stroke="#D97706" stroke-width="1.8"/>
<text x="1855.0" y="352.0" text-anchor="middle" font-family="Helvetica,Arial,sans-serif" font-size="9" fill="#7C4300">Mathlib.Tactic.Linarith.lt_</text>
<text x="1855.0" y="364.0" text-anchor="middle" font-family="Helvetica,Arial,sans-serif" font-size="9" fill="#7C4300">irrefl +</text>
<text x="1855.0" y="376.0" text-anchor="middle" font-family="Helvetica,Arial,sans-serif" font-size="9" fill="#7C4300">F_strictMono_on_nonneg …</text>
<rect x="80" y="276.0" width="260" height="88" rx="11" fill="#E7F6F3" stroke="#178F82" stroke-width="2"/>
<text x="90" y="300.0" font-family="Helvetica,Arial,sans-serif" font-size="10" font-weight="700" fill="#178F82">inst._@.proofs.1292248354._hygCtx._hyg.13</text>
<text x="210.0" y="318.0" text-anchor="middle" font-family="Menlo,monospace" font-size="10" fill="#23384D">MeasureTheory.IsProbabilityMea</text>
<text x="210.0" y="332.0" text-anchor="middle" font-family="Menlo,monospace" font-size="10" fill="#23384D">sure μ</text>
<rect x="1960" y="276.0" width="260" height="88" rx="11" fill="#EAF7EC" stroke="#2E8B57" stroke-width="2"/>
<text x="1970" y="300.0" font-family="Helvetica,Arial,sans-serif" font-size="10" font-weight="700" fill="#2E8B57">goal</text>
<text x="2090.0" y="318.0" text-anchor="middle" font-family="Menlo,monospace" font-size="10" fill="#23384D">∃ s, 0 &lt; s ∧ s &lt; 1 ∧ ∫ (x :</text>
<text x="2090.0" y="332.0" text-anchor="middle" font-family="Menlo,monospace" font-size="10" fill="#23384D">↑(Set.Ioo 0 1)), (Real.exp (s</text>
<text x="2090.0" y="346.0" text-anchor="middle" font-family="Menlo,monospace" font-size="10" fill="#23384D">* (1 - ↑x)) - 1) / (1 - ↑x) ∂μ</text>
<text x="2090.0" y="360.0" text-anchor="middle" font-family="Menlo,monospace" font-size="10" fill="#23384D">= 1 ∧ ∀ (t : ℝ), 0 &lt; t → ∫ (…</text>
<rect x="1020" y="276.0" width="260" height="88" rx="11" fill="#FFF4E5" stroke="#D97706" stroke-width="2"/>
<text x="1030" y="300.0" font-family="Helvetica,Arial,sans-serif" font-size="10" font-weight="700" fill="#D97706">h1mem</text>
<text x="1150.0" y="318.0" text-anchor="middle" font-family="Menlo,monospace" font-size="10" fill="#23384D">1 ∈ Set.Ioo (F (1 / 4)) (F 1)</text>
<rect x="550" y="116.0" width="260" height="88" rx="11" fill="#FFF4E5" stroke="#D97706" stroke-width="2"/>
<text x="560" y="140.0" font-family="Helvetica,Arial,sans-serif" font-size="10" font-weight="700" fill="#D97706">hcontIcc</text>
<text x="680.0" y="158.0" text-anchor="middle" font-family="Menlo,monospace" font-size="10" fill="#23384D">ContinuousOn F (Set.Icc (1 /</text>
<text x="680.0" y="172.0" text-anchor="middle" font-family="Menlo,monospace" font-size="10" fill="#23384D">4) 1)</text>
<rect x="550" y="276.0" width="260" height="88" rx="11" fill="#FFF4E5" stroke="#D97706" stroke-width="2"/>
<text x="560" y="300.0" font-family="Helvetica,Arial,sans-serif" font-size="10" font-weight="700" fill="#D97706">hF14</text>
<text x="680.0" y="318.0" text-anchor="middle" font-family="Menlo,monospace" font-size="10" fill="#23384D">F (1 / 4) &lt; 1</text>
<rect x="550" y="436.0" width="260" height="88" rx="11" fill="#FFF4E5" stroke="#D97706" stroke-width="2"/>
<text x="560" y="460.0" font-family="Helvetica,Arial,sans-serif" font-size="10" font-weight="700" fill="#D97706">hF1</text>
<text x="680.0" y="478.0" text-anchor="middle" font-family="Menlo,monospace" font-size="10" fill="#23384D">1 &lt; F 1</text>
<rect x="1490" y="276.0" width="260" height="88" rx="11" fill="#FFF4E5" stroke="#D97706" stroke-width="2"/>
<text x="1500" y="300.0" font-family="Helvetica,Arial,sans-serif" font-size="10" font-weight="700" fill="#D97706">himage</text>
<text x="1620.0" y="318.0" text-anchor="middle" font-family="Menlo,monospace" font-size="10" fill="#23384D">1 ∈ F &#x27;&#x27; Set.Ioo (1 / 4) 1</text>
</svg>
