<svg xmlns="http://www.w3.org/2000/svg" width="2530" height="640" viewBox="0 0 2530 640">
<defs><marker id="arrow" viewBox="0 0 10 10" refX="9" refY="5" markerWidth="7" markerHeight="7" orient="auto-start-reverse"><path d="M 0 0 L 10 5 L 0 10 z" fill="#315A7D"/></marker></defs>
<rect width="100%" height="100%" fill="white"/>
<text x="28" y="32" font-family="Helvetica,Arial,sans-serif" font-size="18" font-weight="700" fill="#17324D">group_symmetrization_lipschitz</text>
<path d="M 445 240.0 L 550 240.0" stroke="#315A7D" stroke-width="1.8" fill="none" marker-end="url(#arrow)"/>
<polygon points="430,223.0 447,240.0 430,257.0 413,240.0" fill="#FFF0DB" stroke="#D97706" stroke-width="1.8"/>
<text x="430" y="272.0" text-anchor="middle" font-family="Helvetica,Arial,sans-serif" font-size="9" fill="#7C4300">Fintype.card_pos</text>
<path d="M 340 160.0 L 430.0 340.0" stroke="#315A7D" stroke-width="1.8" fill="none" marker-end="url(#arrow)"/>
<path d="M 340 480.0 L 430.0 340.0" stroke="#315A7D" stroke-width="1.8" fill="none" marker-end="url(#arrow)"/>
<path d="M 340 320.0 L 430.0 340.0" stroke="#315A7D" stroke-width="1.8" fill="none" marker-end="url(#arrow)"/>
<path d="M 460.0 340.0 L 550 400.0" stroke="#315A7D" stroke-width="1.8" fill="none" marker-end="url(#arrow)"/>
<polygon points="445.0,323.0 462.0,340.0 445.0,357.0 428.0,340.0" fill="#FFF0DB" stroke="#D97706" stroke-width="1.8"/>
<text x="445.0" y="372.0" text-anchor="middle" font-family="Helvetica,Arial,sans-serif" font-size="9" fill="#7C4300">mul_le_mul_of_nonneg_left</text>
<path d="M 810 400.0 L 900.0 360.0" stroke="#315A7D" stroke-width="1.8" fill="none" marker-end="url(#arrow)"/>
<path d="M 930.0 360.0 L 1020 320.0" stroke="#315A7D" stroke-width="1.8" fill="none" marker-end="url(#arrow)"/>
<polygon points="915.0,343.0 932.0,360.0 915.0,377.0 898.0,360.0" fill="#FFF0DB" stroke="#D97706" stroke-width="1.8"/>
<text x="915.0" y="392.0" text-anchor="middle" font-family="Helvetica,Arial,sans-serif" font-size="9" fill="#7C4300">Finset.abs_sum_le_sum_abs +</text>
<text x="915.0" y="404.0" text-anchor="middle" font-family="Helvetica,Arial,sans-serif" font-size="9" fill="#7C4300">Finset.card_univ +</text>
<text x="915.0" y="416.0" text-anchor="middle" font-family="Helvetica,Arial,sans-serif" font-size="9" fill="#7C4300">Finset.sum_const</text>
<path d="M 810 240.0 L 1370.0 293.3333333333333" stroke="#315A7D" stroke-width="1.8" fill="none" marker-end="url(#arrow)"/>
<path d="M 1280 320.0 L 1370.0 293.3333333333333" stroke="#315A7D" stroke-width="1.8" fill="none" marker-end="url(#arrow)"/>
<path d="M 1400.0 293.3333333333333 L 1490 320.0" stroke="#315A7D" stroke-width="1.8" fill="none" marker-end="url(#arrow)"/>
<polygon points="1385.0,276.3333333333333 1402.0,293.3333333333333 1385.0,310.3333333333333 1368.0,293.3333333333333" fill="#FFF0DB" stroke="#D97706" stroke-width="1.8"/>
<text x="1385.0" y="325.3333333333333" text-anchor="middle" font-family="Helvetica,Arial,sans-serif" font-size="9" fill="#7C4300">abs_div + abs_of_nonneg +</text>
<text x="1385.0" y="337.3333333333333" text-anchor="middle" font-family="Helvetica,Arial,sans-serif" font-size="9" fill="#7C4300">div_le_iff₀</text>
<path d="M 1750 320.0 L 1840.0 320.0" stroke="#315A7D" stroke-width="1.8" fill="none" marker-end="url(#arrow)"/>
<path d="M 1870.0 320.0 L 1960 320.0" stroke="#315A7D" stroke-width="1.8" fill="none" marker-end="url(#arrow)"/>
<polygon points="1855.0,303.0 1872.0,320.0 1855.0,337.0 1838.0,320.0" fill="#FFF0DB" stroke="#D97706" stroke-width="1.8"/>
<text x="1855.0" y="352.0" text-anchor="middle" font-family="Helvetica,Arial,sans-serif" font-size="9" fill="#7C4300">exact</text>
<rect x="80" y="116.0" width="260" height="88" rx="11" fill="#E7F6F3" stroke="#178F82" stroke-width="2"/>
<text x="90" y="140.0" font-family="Helvetica,Arial,sans-serif" font-size="10" font-weight="700" fill="#178F82">hact</text>
<text x="210.0" y="158.0" text-anchor="middle" font-family="Menlo,monospace" font-size="10" fill="#23384D">∀ (g : G) (x y : ↑X), ‖↑(g •</text>
<text x="210.0" y="172.0" text-anchor="middle" font-family="Menlo,monospace" font-size="10" fill="#23384D">x) - ↑(g • y)‖ ≤ ‖↑x - ↑y‖</text>
<rect x="80" y="276.0" width="260" height="88" rx="11" fill="#E7F6F3" stroke="#178F82" stroke-width="2"/>
<text x="90" y="300.0" font-family="Helvetica,Arial,sans-serif" font-size="10" font-weight="700" fill="#178F82">hf</text>
<text x="210.0" y="318.0" text-anchor="middle" font-family="Menlo,monospace" font-size="10" fill="#23384D">∀ (x y : ↑X), |f x - f y| ≤ L</text>
<text x="210.0" y="332.0" text-anchor="middle" font-family="Menlo,monospace" font-size="10" fill="#23384D">* ‖↑x - ↑y‖</text>
<rect x="80" y="436.0" width="260" height="88" rx="11" fill="#E7F6F3" stroke="#178F82" stroke-width="2"/>
<text x="90" y="460.0" font-family="Helvetica,Arial,sans-serif" font-size="10" font-weight="700" fill="#178F82">hL</text>
<text x="210.0" y="478.0" text-anchor="middle" font-family="Menlo,monospace" font-size="10" fill="#23384D">0 ≤ L</text>
<rect x="1960" y="276.0" width="260" height="88" rx="11" fill="#EAF7EC" stroke="#2E8B57" stroke-width="2"/>
<text x="1970" y="300.0" font-family="Helvetica,Arial,sans-serif" font-size="10" font-weight="700" fill="#2E8B57">goal</text>
<text x="2090.0" y="318.0" text-anchor="middle" font-family="Menlo,monospace" font-size="10" fill="#23384D">|(∑ g, f (g • x)) / C - (∑ g,</text>
<text x="2090.0" y="332.0" text-anchor="middle" font-family="Menlo,monospace" font-size="10" fill="#23384D">f (g • y)) / C| ≤ L * ‖↑x -</text>
<text x="2090.0" y="346.0" text-anchor="middle" font-family="Menlo,monospace" font-size="10" fill="#23384D">↑y‖</text>
<rect x="550" y="196.0" width="260" height="88" rx="11" fill="#FFF4E5" stroke="#D97706" stroke-width="2"/>
<text x="560" y="220.0" font-family="Helvetica,Arial,sans-serif" font-size="10" font-weight="700" fill="#D97706">hCpos</text>
<text x="680.0" y="238.0" text-anchor="middle" font-family="Menlo,monospace" font-size="10" fill="#23384D">0 &lt; C</text>
<rect x="1490" y="276.0" width="260" height="88" rx="11" fill="#FFF4E5" stroke="#D97706" stroke-width="2"/>
<text x="1500" y="300.0" font-family="Helvetica,Arial,sans-serif" font-size="10" font-weight="700" fill="#D97706">hdiv</text>
<text x="1620.0" y="318.0" text-anchor="middle" font-family="Menlo,monospace" font-size="10" fill="#23384D">|(∑ g, f (g • x)) / C - (∑ g,</text>
<text x="1620.0" y="332.0" text-anchor="middle" font-family="Menlo,monospace" font-size="10" fill="#23384D">f (g • y)) / C| ≤ L * ‖↑x -</text>
<text x="1620.0" y="346.0" text-anchor="middle" font-family="Menlo,monospace" font-size="10" fill="#23384D">↑y‖</text>
<rect x="1020" y="276.0" width="260" height="88" rx="11" fill="#FFF4E5" stroke="#D97706" stroke-width="2"/>
<text x="1030" y="300.0" font-family="Helvetica,Arial,sans-serif" font-size="10" font-weight="700" fill="#D97706">hsum</text>
<text x="1150.0" y="318.0" text-anchor="middle" font-family="Menlo,monospace" font-size="10" fill="#23384D">|∑ g, f (g • x) - ∑ g, f (g •</text>
<text x="1150.0" y="332.0" text-anchor="middle" font-family="Menlo,monospace" font-size="10" fill="#23384D">y)| ≤ C * (L * ‖↑x - ↑y‖)</text>
<rect x="550" y="356.0" width="260" height="88" rx="11" fill="#FFF4E5" stroke="#D97706" stroke-width="2"/>
<text x="560" y="380.0" font-family="Helvetica,Arial,sans-serif" font-size="10" font-weight="700" fill="#D97706">hterm</text>
<text x="680.0" y="398.0" text-anchor="middle" font-family="Menlo,monospace" font-size="10" fill="#23384D">∀ (g : G), |f (g • x) - f (g •</text>
<text x="680.0" y="412.0" text-anchor="middle" font-family="Menlo,monospace" font-size="10" fill="#23384D">y)| ≤ L * ‖↑x - ↑y‖</text>
</svg>
