<svg xmlns="http://www.w3.org/2000/svg" width="3000" height="800" viewBox="0 0 3000 800">
<defs><marker id="arrow" viewBox="0 0 10 10" refX="9" refY="5" markerWidth="7" markerHeight="7" orient="auto-start-reverse"><path d="M 0 0 L 10 5 L 0 10 z" fill="#315A7D"/></marker></defs>
<rect width="100%" height="100%" fill="white"/>
<text x="28" y="32" font-family="Helvetica,Arial,sans-serif" font-size="18" font-weight="700" fill="#17324D">finite_category_mobius_zero</text>
<path d="M 340 240.0 L 430.0 360.0" stroke="#315A7D" stroke-width="1.8" fill="none" marker-end="url(#arrow)"/>
<path d="M 460.0 360.0 L 550 480.0" stroke="#315A7D" stroke-width="1.8" fill="none" marker-end="url(#arrow)"/>
<polygon points="445.0,343.0 462.0,360.0 445.0,377.0 428.0,360.0" fill="#FFF0DB" stroke="#D97706" stroke-width="1.8"/>
<text x="445.0" y="392.0" text-anchor="middle" font-family="Helvetica,Arial,sans-serif" font-size="9" fill="#7C4300">Matrix.ext</text>
<path d="M 340 400.0 L 430.0 520.0" stroke="#315A7D" stroke-width="1.8" fill="none" marker-end="url(#arrow)"/>
<path d="M 460.0 520.0 L 550 640.0" stroke="#315A7D" stroke-width="1.8" fill="none" marker-end="url(#arrow)"/>
<polygon points="445.0,503.0 462.0,520.0 445.0,537.0 428.0,520.0" fill="#FFF0DB" stroke="#D97706" stroke-width="1.8"/>
<text x="445.0" y="552.0" text-anchor="middle" font-family="Helvetica,Arial,sans-serif" font-size="9" fill="#7C4300">Matrix.ext</text>
<path d="M 445 160.0 L 550 160.0" stroke="#315A7D" stroke-width="1.8" fill="none" marker-end="url(#arrow)"/>
<polygon points="430,143.0 447,160.0 430,177.0 413,160.0" fill="#FFF0DB" stroke="#D97706" stroke-width="1.8"/>
<text x="430" y="192.0" text-anchor="middle" font-family="Helvetica,Arial,sans-serif" font-size="9" fill="#7C4300">Bool.lt_iff +</text>
<text x="430" y="204.0" text-anchor="middle" font-family="Helvetica,Arial,sans-serif" font-size="9" fill="#7C4300">Fintype.card_pos +</text>
<text x="430" y="216.0" text-anchor="middle" font-family="Helvetica,Arial,sans-serif" font-size="9" fill="#7C4300">Fintype.card_pos_iff</text>
<rect x="369" y="92.0" width="122" height="27" rx="7" fill="#F3ECFF" stroke="#7D4CC2" stroke-width="1.2"/>
<text x="430" y="110.0" text-anchor="middle" font-family="Helvetica,Arial,sans-serif" font-size="10" fill="#60349A">retrieved loogle:36, loogle:38</text>
<path d="M 430 119.0 L 430 142.0" stroke="#7D4CC2" stroke-width="1.2" stroke-dasharray="5 4" fill="none"/>
<path d="M 810 640.0 L 900.0 346.6666666666667" stroke="#315A7D" stroke-width="1.8" fill="none" marker-end="url(#arrow)"/>
<path d="M 810 160.0 L 900.0 346.6666666666667" stroke="#315A7D" stroke-width="1.8" fill="none" marker-end="url(#arrow)"/>
<path d="M 930.0 346.6666666666667 L 1020 240.0" stroke="#315A7D" stroke-width="1.8" fill="none" marker-end="url(#arrow)"/>
<polygon points="915.0,329.6666666666667 932.0,346.6666666666667 915.0,363.6666666666667 898.0,346.6666666666667" fill="#FFF0DB" stroke="#D97706" stroke-width="1.8"/>
<text x="915.0" y="378.6666666666667" text-anchor="middle" font-family="Helvetica,Arial,sans-serif" font-size="9" fill="#7C4300">Matrix.blockTriangular_inv_</text>
<text x="915.0" y="390.6666666666667" text-anchor="middle" font-family="Helvetica,Arial,sans-serif" font-size="9" fill="#7C4300">of_blockTriangular</text>
<rect x="854.0" y="278.6666666666667" width="122" height="27" rx="7" fill="#F3ECFF" stroke="#7D4CC2" stroke-width="1.2"/>
<text x="915.0" y="296.6666666666667" text-anchor="middle" font-family="Helvetica,Arial,sans-serif" font-size="10" fill="#60349A">retrieved leanfinder:5</text>
<path d="M 915.0 305.6666666666667 L 915.0 328.6666666666667" stroke="#7D4CC2" stroke-width="1.2" stroke-dasharray="5 4" fill="none"/>
<path d="M 810 480.0 L 900.0 440.0" stroke="#315A7D" stroke-width="1.8" fill="none" marker-end="url(#arrow)"/>
<path d="M 930.0 440.0 L 1020 400.0" stroke="#315A7D" stroke-width="1.8" fill="none" marker-end="url(#arrow)"/>
<polygon points="915.0,423.0 932.0,440.0 915.0,457.0 898.0,440.0" fill="#FFF0DB" stroke="#D97706" stroke-width="1.8"/>
<text x="915.0" y="472.0" text-anchor="middle" font-family="Helvetica,Arial,sans-serif" font-size="9" fill="#7C4300">Matrix.inv_eq_left_inv</text>
<rect x="854.0" y="372.0" width="122" height="27" rx="7" fill="#F3ECFF" stroke="#7D4CC2" stroke-width="1.2"/>
<text x="915.0" y="390.0" text-anchor="middle" font-family="Helvetica,Arial,sans-serif" font-size="10" fill="#60349A">retrieved leanfinder:20</text>
<path d="M 915.0 399.0 L 915.0 422.0" stroke="#7D4CC2" stroke-width="1.2" stroke-dasharray="5 4" fill="none"/>
<path d="M 445 320.0 L 550 320.0" stroke="#315A7D" stroke-width="1.8" fill="none" marker-end="url(#arrow)"/>
<polygon points="430,303.0 447,320.0 430,337.0 413,320.0" fill="#FFF0DB" stroke="#D97706" stroke-width="1.8"/>
<text x="430" y="352.0" text-anchor="middle" font-family="Helvetica,Arial,sans-serif" font-size="9" fill="#7C4300">Fintype.card_ne_zero</text>
<rect x="369" y="252.0" width="122" height="27" rx="7" fill="#F3ECFF" stroke="#7D4CC2" stroke-width="1.2"/>
<text x="430" y="270.0" text-anchor="middle" font-family="Helvetica,Arial,sans-serif" font-size="10" fill="#60349A">retrieved loogle:24, leanfinder:27</text>
<path d="M 430 279.0 L 430 302.0" stroke="#7D4CC2" stroke-width="1.2" stroke-dasharray="5 4" fill="none"/>
<path d="M 340 560.0 L 900.0 480.0" stroke="#315A7D" stroke-width="1.8" fill="none" marker-end="url(#arrow)"/>
<path d="M 810 320.0 L 900.0 480.0" stroke="#315A7D" stroke-width="1.8" fill="none" marker-end="url(#arrow)"/>
<path d="M 930.0 480.0 L 1020 560.0" stroke="#315A7D" stroke-width="1.8" fill="none" marker-end="url(#arrow)"/>
<polygon points="915.0,463.0 932.0,480.0 915.0,497.0 898.0,480.0" fill="#FFF0DB" stroke="#D97706" stroke-width="1.8"/>
<text x="915.0" y="512.0" text-anchor="middle" font-family="Helvetica,Arial,sans-serif" font-size="9" fill="#7C4300">Bool.lt_iff +</text>
<text x="915.0" y="524.0" text-anchor="middle" font-family="Helvetica,Arial,sans-serif" font-size="9" fill="#7C4300">Fintype.card_eq_zero</text>
<rect x="854.0" y="412.0" width="122" height="27" rx="7" fill="#F3ECFF" stroke="#7D4CC2" stroke-width="1.2"/>
<text x="915.0" y="430.0" text-anchor="middle" font-family="Helvetica,Arial,sans-serif" font-size="10" fill="#60349A">retrieved loogle:36, loogle:38</text>
<path d="M 915.0 439.0 L 915.0 462.0" stroke="#7D4CC2" stroke-width="1.2" stroke-dasharray="5 4" fill="none"/>
<path d="M 1280 240.0 L 1370.0 400.0" stroke="#315A7D" stroke-width="1.8" fill="none" marker-end="url(#arrow)"/>
<path d="M 1280 560.0 L 1370.0 400.0" stroke="#315A7D" stroke-width="1.8" fill="none" marker-end="url(#arrow)"/>
<path d="M 1400.0 400.0 L 1490 400.0" stroke="#315A7D" stroke-width="1.8" fill="none" marker-end="url(#arrow)"/>
<polygon points="1385.0,383.0 1402.0,400.0 1385.0,417.0 1368.0,400.0" fill="#FFF0DB" stroke="#D97706" stroke-width="1.8"/>
<text x="1385.0" y="432.0" text-anchor="middle" font-family="Helvetica,Arial,sans-serif" font-size="9" fill="#7C4300">proof_term_composition</text>
<path d="M 1280 400.0 L 1840.0 400.0" stroke="#315A7D" stroke-width="1.8" fill="none" marker-end="url(#arrow)"/>
<path d="M 1750 400.0 L 1840.0 400.0" stroke="#315A7D" stroke-width="1.8" fill="none" marker-end="url(#arrow)"/>
<path d="M 1870.0 400.0 L 1960 400.0" stroke="#315A7D" stroke-width="1.8" fill="none" marker-end="url(#arrow)"/>
<polygon points="1855.0,383.0 1872.0,400.0 1855.0,417.0 1838.0,400.0" fill="#FFF0DB" stroke="#D97706" stroke-width="1.8"/>
<text x="1855.0" y="432.0" text-anchor="middle" font-family="Helvetica,Arial,sans-serif" font-size="9" fill="#7C4300">proof_term_composition</text>
<path d="M 2220 400.0 L 2310.0 400.0" stroke="#315A7D" stroke-width="1.8" fill="none" marker-end="url(#arrow)"/>
<path d="M 2340.0 400.0 L 2430 400.0" stroke="#315A7D" stroke-width="1.8" fill="none" marker-end="url(#arrow)"/>
<polygon points="2325.0,383.0 2342.0,400.0 2325.0,417.0 2308.0,400.0" fill="#FFF0DB" stroke="#D97706" stroke-width="1.8"/>
<text x="2325.0" y="432.0" text-anchor="middle" font-family="Helvetica,Arial,sans-serif" font-size="9" fill="#7C4300">simpa</text>
<rect x="80" y="196.0" width="260" height="88" rx="11" fill="#E7F6F3" stroke="#178F82" stroke-width="2"/>
<text x="90" y="220.0" font-family="Helvetica,Arial,sans-serif" font-size="10" font-weight="700" fill="#178F82">hμζ</text>
<text x="210.0" y="238.0" text-anchor="middle" font-family="Menlo,monospace" font-size="10" fill="#23384D">∀ (a c : A), ∑ b, μ a b *</text>
<text x="210.0" y="252.0" text-anchor="middle" font-family="Menlo,monospace" font-size="10" fill="#23384D">↑(Fintype.card (b ⟶ c)) = if a</text>
<text x="210.0" y="266.0" text-anchor="middle" font-family="Menlo,monospace" font-size="10" fill="#23384D">= c then 1 else 0</text>
<rect x="80" y="356.0" width="260" height="88" rx="11" fill="#E7F6F3" stroke="#178F82" stroke-width="2"/>
<text x="90" y="380.0" font-family="Helvetica,Arial,sans-serif" font-size="10" font-weight="700" fill="#178F82">hζμ</text>
<text x="210.0" y="398.0" text-anchor="middle" font-family="Menlo,monospace" font-size="10" fill="#23384D">∀ (a c : A), ∑ b,</text>
<text x="210.0" y="412.0" text-anchor="middle" font-family="Menlo,monospace" font-size="10" fill="#23384D">↑(Fintype.card (a ⟶ b)) * μ b</text>
<text x="210.0" y="426.0" text-anchor="middle" font-family="Menlo,monospace" font-size="10" fill="#23384D">c = if a = c then 1 else 0</text>
<rect x="80" y="516.0" width="260" height="88" rx="11" fill="#E7F6F3" stroke="#178F82" stroke-width="2"/>
<text x="90" y="540.0" font-family="Helvetica,Arial,sans-serif" font-size="10" font-weight="700" fill="#178F82">hab</text>
<text x="210.0" y="558.0" text-anchor="middle" font-family="Menlo,monospace" font-size="10" fill="#23384D">IsEmpty (a ⟶ b)</text>
<rect x="2430" y="356.0" width="260" height="88" rx="11" fill="#EAF7EC" stroke="#2E8B57" stroke-width="2"/>
<text x="2440" y="380.0" font-family="Helvetica,Arial,sans-serif" font-size="10" font-weight="700" fill="#2E8B57">goal</text>
<text x="2560.0" y="398.0" text-anchor="middle" font-family="Menlo,monospace" font-size="10" fill="#23384D">M a b = 0</text>
<rect x="1020" y="196.0" width="260" height="88" rx="11" fill="#FFF4E5" stroke="#D97706" stroke-width="2"/>
<text x="1030" y="220.0" font-family="Helvetica,Arial,sans-serif" font-size="10" font-weight="700" fill="#D97706">hμtri</text>
<text x="1150.0" y="238.0" text-anchor="middle" font-family="Menlo,monospace" font-size="10" fill="#23384D">ζ⁻¹.BlockTriangular label</text>
<rect x="550" y="116.0" width="260" height="88" rx="11" fill="#FFF4E5" stroke="#D97706" stroke-width="2"/>
<text x="560" y="140.0" font-family="Helvetica,Arial,sans-serif" font-size="10" font-weight="700" fill="#D97706">hζtri</text>
<text x="680.0" y="158.0" text-anchor="middle" font-family="Menlo,monospace" font-size="10" fill="#23384D">ζ.BlockTriangular label</text>
<rect x="550" y="276.0" width="260" height="88" rx="11" fill="#F4F4F4" stroke="#80868B" stroke-width="2"/>
<text x="560" y="300.0" font-family="Helvetica,Arial,sans-serif" font-size="10" font-weight="700" fill="#80868B">hbcard</text>
<text x="680.0" y="318.0" text-anchor="middle" font-family="Menlo,monospace" font-size="10" fill="#23384D">Fintype.card (b ⟶ b) ≠ 0</text>
<rect x="1020" y="356.0" width="260" height="88" rx="11" fill="#FFF4E5" stroke="#D97706" stroke-width="2"/>
<text x="1030" y="380.0" font-family="Helvetica,Arial,sans-serif" font-size="10" font-weight="700" fill="#D97706">hinv</text>
<text x="1150.0" y="398.0" text-anchor="middle" font-family="Menlo,monospace" font-size="10" fill="#23384D">ζ⁻¹ = M</text>
<rect x="1020" y="516.0" width="260" height="88" rx="11" fill="#FFF4E5" stroke="#D97706" stroke-width="2"/>
<text x="1030" y="540.0" font-family="Helvetica,Arial,sans-serif" font-size="10" font-weight="700" fill="#D97706">hlt</text>
<text x="1150.0" y="558.0" text-anchor="middle" font-family="Menlo,monospace" font-size="10" fill="#23384D">label b &lt; label a</text>
<rect x="550" y="436.0" width="260" height="88" rx="11" fill="#FFF4E5" stroke="#D97706" stroke-width="2"/>
<text x="560" y="460.0" font-family="Helvetica,Arial,sans-serif" font-size="10" font-weight="700" fill="#D97706">hMZ</text>
<text x="680.0" y="478.0" text-anchor="middle" font-family="Menlo,monospace" font-size="10" fill="#23384D">M * ζ = 1</text>
<rect x="1490" y="356.0" width="260" height="88" rx="11" fill="#FFF4E5" stroke="#D97706" stroke-width="2"/>
<text x="1500" y="380.0" font-family="Helvetica,Arial,sans-serif" font-size="10" font-weight="700" fill="#D97706">hzero</text>
<text x="1620.0" y="398.0" text-anchor="middle" font-family="Menlo,monospace" font-size="10" fill="#23384D">ζ⁻¹ a b = 0</text>
<rect x="550" y="596.0" width="260" height="88" rx="11" fill="#FFF4E5" stroke="#D97706" stroke-width="2"/>
<text x="560" y="620.0" font-family="Helvetica,Arial,sans-serif" font-size="10" font-weight="700" fill="#D97706">hZM</text>
<text x="680.0" y="638.0" text-anchor="middle" font-family="Menlo,monospace" font-size="10" fill="#23384D">ζ * M = 1</text>
<rect x="1960" y="356.0" width="260" height="88" rx="11" fill="#FFF4E5" stroke="#D97706" stroke-width="2"/>
<text x="1970" y="380.0" font-family="Helvetica,Arial,sans-serif" font-size="10" font-weight="700" fill="#D97706">this</text>
<text x="2090.0" y="398.0" text-anchor="middle" font-family="Menlo,monospace" font-size="10" fill="#23384D">M a b = 0</text>
</svg>
